<?xml version="1.0" encoding="utf-8"?>
<!-- Generator: Adobe Illustrator 16.0.0, SVG Export Plug-In . SVG Version: 6.00 Build 0)  -->
<!DOCTYPE svg PUBLIC "-//W3C//DTD SVG 1.1//EN" "http://www.w3.org/Graphics/SVG/1.1/DTD/svg11.dtd">
<svg version="1.1" id="Capa_1" xmlns="http://www.w3.org/2000/svg" xmlns:xlink="http://www.w3.org/1999/xlink" x="0px" y="0px"
	 width="72.793px" height="63.997px" viewBox="0 0 72.793 63.997" enable-background="new 0 0 72.793 63.997" xml:space="preserve">
<g>
	<path fill="#FFFFFF" d="M66.912,5.942c-3.811-3.812-8.855-5.895-14.244-5.895c-5.385,0-10.446,2.098-14.258,5.909l-1.99,1.991
		l-2.021-2.021C30.586,2.115,25.509,0,20.124,0C14.753,0,9.691,2.1,5.895,5.895C2.083,9.708-0.016,14.77,0,20.155
		c0,5.387,2.113,10.432,5.926,14.244l28.98,28.98c0.402,0.4,0.941,0.617,1.467,0.617s1.064-0.199,1.467-0.602l29.043-28.936
		c3.811-3.812,5.91-8.875,5.91-14.26C72.809,14.815,70.725,9.754,66.912,5.942z M63.951,31.512L36.374,58.981L8.859,31.467
		c-3.024-3.025-4.691-7.037-4.691-11.312s1.65-8.287,4.676-11.297c3.01-3.008,7.021-4.676,11.281-4.676
		c4.275,0,8.302,1.668,11.326,4.691l3.488,3.486c0.817,0.818,2.129,0.818,2.947,0l3.456-3.457c3.024-3.023,7.054-4.689,11.312-4.689
		c4.26,0,8.271,1.666,11.297,4.676c3.023,3.025,4.676,7.037,4.676,11.312C68.643,24.475,66.975,28.487,63.951,31.512z"/>
</g>
</svg>
