<?xml version="1.0" encoding="utf-8"?>
<!-- Generator: Adobe Illustrator 16.0.0, SVG Export Plug-In . SVG Version: 6.00 Build 0)  -->
<!DOCTYPE svg PUBLIC "-//W3C//DTD SVG 1.1//EN" "http://www.w3.org/Graphics/SVG/1.1/DTD/svg11.dtd">
<svg version="1.1" id="Layer_1" xmlns="http://www.w3.org/2000/svg" xmlns:xlink="http://www.w3.org/1999/xlink" x="0px" y="0px"
	 width="415.519px" height="46.156px" viewBox="55.007 64.339 415.519 46.156"
	 enable-background="new 55.007 64.339 415.519 46.156" xml:space="preserve">
<g>
	<g>
		<path d="M88.771,64.726v7.381H76.301v34.303h-8.767V72.107H55.007v-7.381H88.771z"/>
		<path d="M115.364,75.755c1.548,0.661,2.82,1.67,3.815,3.029c0.845,1.15,1.36,2.335,1.548,3.552s0.281,3.203,0.281,5.958v18.115
			h-8.229V87.639c0-1.661-0.281-3.001-0.842-4.02c-0.73-1.435-2.115-2.152-4.154-2.152c-2.115,0-3.72,0.713-4.813,2.138
			c-1.096,1.426-1.643,3.458-1.643,6.102v16.703h-8.06V64.868h8.06v14.705c1.164-1.791,2.511-3.04,4.041-3.747
			c1.529-0.707,3.139-1.061,4.829-1.061C112.092,74.765,113.815,75.095,115.364,75.755z"/>
		<path d="M148.673,76.209c2.15,0.963,3.927,2.482,5.327,4.56c1.263,1.831,2.081,3.955,2.456,6.372
			c0.217,1.416,0.306,3.456,0.266,6.118h-22.45c0.125,3.092,1.2,5.26,3.224,6.504c1.231,0.773,2.712,1.159,4.444,1.159
			c1.835,0,3.327-0.471,4.475-1.414c0.625-0.509,1.179-1.216,1.659-2.12h8.228c-0.217,1.828-1.213,3.687-2.987,5.57
			c-2.762,2.998-6.626,4.496-11.598,4.496c-4.102,0-7.721-1.265-10.856-3.792c-3.136-2.528-4.704-6.643-4.704-12.34
			c0-5.34,1.415-9.435,4.246-12.283c2.831-2.85,6.505-4.274,11.021-4.274C144.107,74.765,146.523,75.247,148.673,76.209z
			 M136.617,83.172c-1.139,1.174-1.854,2.764-2.146,4.771h13.885c-0.147-2.14-0.862-3.763-2.147-4.87
			c-1.285-1.108-2.878-1.662-4.779-1.662C139.359,81.411,137.755,81.998,136.617,83.172z"/>
	</g>
	<rect x="173.337" y="64.339" width="297.188" height="46.156"/>
</g>
</svg>
