<?xml version="1.0" encoding="utf-8"?>
<!-- Generator: Adobe Illustrator 16.0.0, SVG Export Plug-In . SVG Version: 6.00 Build 0)  -->
<!DOCTYPE svg PUBLIC "-//W3C//DTD SVG 1.1//EN" "http://www.w3.org/Graphics/SVG/1.1/DTD/svg11.dtd">
<svg version="1.1" id="Capa_1" xmlns="http://www.w3.org/2000/svg" xmlns:xlink="http://www.w3.org/1999/xlink" x="0px" y="0px"
	 width="72.793px" height="63.997px" viewBox="261.244 388.948 72.793 63.997"
	 enable-background="new 261.244 388.948 72.793 63.997" xml:space="preserve">
<path d="M301.588,390.505c-16.786,0-30.441,13.656-30.441,30.44c0,6.097,1.843,12.042,5.23,17.05h-11.125c-1.104,0-2,0.896-2,2
	s0.896,2,2,2h16.168c1.104,0,2-0.896,2-2V423.83c0-1.104-0.896-2-2-2s-2,0.896-2,2v11.484c-2.759-4.258-4.273-9.246-4.273-14.369
	c0-14.579,11.861-26.44,26.441-26.44c14.579,0,26.44,11.861,26.44,26.44c0,14.58-11.861,26.441-26.44,26.441c-1.104,0-2,0.896-2,2
	s0.896,2,2,2c16.785,0,30.44-13.655,30.44-30.441C332.029,404.161,318.373,390.505,301.588,390.505z"/>
</svg>
